# xmcd
#
# Track frame offsets: 
#        150
#        18060
#        35832
#        55736
#        72460
#        90799
#        110663
#        131936
#        152569
#        166715
#        181762
#
# Disc length: 2665 seconds
#
# Revision: 3
# Processed by: cddbd v1.5.1PL2 Copyright (c) Steve Scherf et al.
# Submitted via: ExactAudioCopy v0.90b4
#
DISCID=840a670b
DTITLE=Jeremiah - Heart And Soul
DYEAR=1998
DGENRE=Asian
TTITLE0='Di Ko Kaya
TTITLE1=O Bakit 
TTITLE2=If Only I Could
TTITLE3=Dancing To The Music
TTITLE4=Baby It Hurts
TTITLE5=Can We Put A Stop
TTITLE6=Nanghihinayang
TTITLE7=Hindi Ako Katulad Niya
TTITLE8=I Don't Wanna
TTITLE9=I'm Sorry
TTITLE10=Tell Me Girl (Acapella)
EXTD=I Love you. for Liza. ID3G:   2
EXTT0=
EXTT1=
EXTT2=
EXTT3=
EXTT4=
EXTT5=
EXTT6=
EXTT7=
EXTT8=
EXTT9=
EXTT10=
PLAYORDER=
